<svg height="512pt" viewBox="-35 0 511 512" width="512pt" xmlns="http://www.w3.org/2000/svg"><g fill="#003c72"><path d="m385.058594 435.300781c-6.699219 0-12.144532-5.421875-12.144532-12.089843v-4.972657c0-3.734375 1.710938-7.078125 4.394532-9.296875-2.6875-2.222656-4.394532-5.566406-4.394532-9.300781v-4.972656c0-3.734375 1.710938-7.078125 4.394532-9.300781-2.6875-2.21875-4.394532-5.5625-4.394532-9.296876v-2.242187l-38.890624-53.691406c.136718 1.417969.210937 2.855469.210937 4.308593v96.5625l28.289063 39.054688c9.535156 13.167969 28.011718 16.160156 41.261718 6.679688 10.253906-7.335938 14.367188-19.992188 11.285156-31.441407zm0 0"/><path d="m131.144531 262.078125s.003907 0 .003907.003906c-7.75-3.3125-14.886719-7.765625-21.195313-13.160156l-14.398437 30.207031h-41.964844c-25.140625 0-45.589844 20.328125-45.589844 45.316406v174.964844c0 2.8125 2.277344 5.089844 5.089844 5.089844h118.941406v-242.03125c-.296875-.125-.589844-.265625-.886719-.390625zm0 0"/><path d="m288.644531 279.128906h-35.414062l21.609375 45.332032c1.414062 2.902343.402344 6.800781-2.246094 8.660156l-20.445312 14.347656c-2.652344 1.859375-3.351563 5.582031-1.5625 8.273438l22.527343 33.796874c1.792969 2.6875 2.039063 7.234376.550781 10.097657l-37.570312 104.863281h93.050781c2.8125 0 5.089844-2.277344 5.089844-5.085938v-174.96875c0-24.988281-20.453125-45.316406-45.589844-45.316406zm0 0"/></g><path d="m39.3125 499.414062v-174.96875c0-24.988281 20.453125-45.316406 45.59375-45.316406h-31.316406c-25.140625 0-45.589844 20.328125-45.589844 45.316406v174.964844c0 2.8125 2.277344 5.089844 5.089844 5.089844h31.3125c-2.808594 0-5.089844-2.277344-5.089844-5.085938zm0 0" fill="#002d4f"/><path d="m174.394531 317.960938-42.363281 28.410156v40.808594l42.363281 61.019531 42.359375-61.019531v-40.175782zm0 0" fill="#abebff"/><path d="m201.5625 336.589844-27.167969-18.628906-27.359375 18.347656 14.65625 21.507812-10.949218 56.316406 23.652343 34.066407 23.648438-34.066407-10.949219-56.316406zm0 0" fill="#b7092b"/><path d="m174.394531 448.199219-42.363281-61.019531v117.320312h84.722656v-117.320312zm0 0" fill="#8a8c8e"/><path d="m132.03125 504.5h22.789062v-84.496094l-22.789062-32.824218zm0 0" fill="#6d6e71"/><path d="m216.753906 262.46875c.105469-.046875.207032-.09375.3125-.140625-9.789062 4.097656-20.539062 6.371094-31.824218 6.371094h-21.699219c-11.507813 0-22.457031-2.371094-32.398438-6.621094.296875.125.589844.265625.890625.390625v83.902344l42.359375-28.410156 42.359375 29.042968zm0 0" fill="#def9ff"/><path d="m250.585938 355.738281c-1.789063-2.6875-1.089844-6.410156 1.5625-8.269531l20.445312-14.347656c2.648438-1.859375 3.660156-5.757813 2.246094-8.660156l-36.007813-75.539063c-6.550781 5.601563-13.984375 10.199219-22.078125 13.542969v242.035156h19.339844l37.570312-104.863281c1.488282-2.863281 1.242188-7.410157-.550781-10.097657zm0 0" fill="#0052ac"/><path d="m109.953125 248.921875-36.011719 75.539063c-1.410156 2.902343-.398437 6.800781 2.25 8.660156l20.445313 14.347656c2.652343 1.859375 3.351562 5.582031 1.558593 8.273438l-22.523437 33.796874c-1.792969 2.6875-2.039063 7.234376-.550781 10.097657l37.570312 104.863281h19.339844v-242.03125c-8.09375-3.347656-15.527344-7.945312-22.078125-13.546875zm0 0" fill="#0052ac"/><path d="m185.242188 268.699219h-21.699219c-6.632813 0-13.070313-.804688-19.25-2.277344l30.101562 40.6875 30.097657-40.6875c-6.179688 1.476563-12.617188 2.277344-19.25 2.277344zm0 0" fill="#ffe2b8"/><path d="m226.152344 58.554688v15.808593c24.949218 13.105469 41.375 36.65625 41.375 68.65625v1.042969h13.109375c.902343 0 1.78125.089844 2.648437.222656v-73.554687c0-21.195313-17.265625-38.375-38.5625-38.375h-4.945312c-6.667969 0-12.941406 1.6875-18.414063 4.652343 3.066407 6.546876 4.789063 13.84375 4.789063 21.546876zm0 0" fill="#b57a4e"/><path d="m68.148438 144.0625h13.109374v-1.042969c0-50.992187 41.695313-80.53125 93.136719-80.53125 19.15625 0 36.957031 4.101563 51.761719 11.875v-15.808593c0-28.199219-22.96875-51.054688-51.300781-51.054688h-58.050781c-28.335938 0-51.300782 22.855469-51.300782 51.054688v85.730468c.863282-.132812 1.742188-.222656 2.644532-.222656zm0 0" fill="#b57a4e"/><path d="m68.148438 144.0625h13.109374v-1.042969c0-18.726562 5.628907-34.550781 15.292969-47.089843v-37.375c0-28.199219 22.964844-51.054688 51.300781-51.054688h-31.046874c-28.335938 0-51.300782 22.855469-51.300782 51.054688v85.730468c.863282-.132812 1.742188-.222656 2.644532-.222656zm0 0" fill="#9b5729"/><path d="m81.257812 186.808594v-42.746094h-13.109374c-9.488282 0-17.179688 7.65625-17.179688 17.097656v20.695313c0 9.441406 7.691406 17.097656 17.179688 17.097656h14.015624c-.59375-3.964844-.90625-8.015625-.90625-12.144531zm0 0" fill="#ffe2b8"/><path d="m280.636719 144.0625h-13.109375v42.746094c0 4.128906-.3125 8.179687-.90625 12.144531h14.015625c9.492187 0 17.183593-7.65625 17.183593-17.097656v-20.695313c0-9.441406-7.691406-17.097656-17.183593-17.097656zm0 0" fill="#ffe2b8"/><path d="m174.394531 62.488281c-51.441406 0-93.136719 29.542969-93.136719 80.53125v43.789063c0 45.226562 36.84375 81.890625 82.285157 81.890625h21.699219c45.445312 0 82.285156-36.664063 82.285156-81.890625v-43.789063c0-50.988281-41.699219-80.53125-93.132813-80.53125zm0 0" fill="#ffe2b8"/><path d="m101.550781 186.808594v-43.789063c0-47.589843 36.324219-76.492187 82.988281-80.132812-3.335937-.261719-6.71875-.398438-10.148437-.398438-51.4375 0-93.132813 29.542969-93.132813 80.53125v43.789063c0 45.226562 36.839844 81.890625 82.285157 81.890625h20.289062c-45.441406 0-82.28125-36.664063-82.28125-81.890625zm0 0" fill="#ffc987"/><path d="m399.464844 308.574219c-18.542969 0-33.632813-14.996094-33.632813-33.425781v-66.855469c0-3.238281 2.644531-5.863281 5.898438-5.863281h55.464843c3.261719 0 5.902344 2.625 5.902344 5.863281v66.855469c0 18.429687-15.085937 33.425781-33.632812 33.425781zm0 0" fill="#def9ff"/><path d="m386.550781 275.148438v-66.855469c0-3.238281 2.640625-5.863281 5.898438-5.863281h-20.71875c-3.257813 0-5.898438 2.625-5.898438 5.863281v66.855469c0 18.429687 15.089844 33.425781 33.632813 33.425781 3.613281 0 7.09375-.578125 10.359375-1.628907-13.492188-4.351562-23.273438-16.957031-23.273438-31.796874zm0 0" fill="#abebff"/><path d="m365.832031 235.855469v39.292969c0 18.429687 15.089844 33.425781 33.632813 33.425781 18.546875 0 33.632812-14.996094 33.632812-33.425781v-39.292969zm0 0" fill="#fff4a4"/><path d="m386.550781 275.148438v-39.292969h-20.71875v39.292969c0 18.429687 15.089844 33.425781 33.632813 33.425781 3.613281 0 7.09375-.578125 10.359375-1.628907-13.492188-4.351562-23.273438-16.957031-23.273438-31.796874zm0 0" fill="#e8dd52"/><path d="m415.851562 435.300781c6.699219 0 12.144532-5.421875 12.144532-12.089843v-52.113282c0-6.664062-5.445313-12.089844-12.144532-12.089844h-30.792968c-6.699219 0-12.144532 5.425782-12.144532 12.089844v4.972656c0 3.734376 1.710938 7.082032 4.394532 9.300782-2.6875 2.21875-4.394532 5.5625-4.394532 9.296875v4.972656c0 3.734375 1.710938 7.082031 4.394532 9.300781-2.6875 2.21875-4.394532 5.5625-4.394532 9.296875v4.972657c0 6.667968 5.445313 12.089843 12.144532 12.089843zm0 0" fill="#ffe2b8"/><path d="m393.550781 423.210938v-4.972657c0-3.734375 1.707031-7.078125 4.390625-9.296875-2.683594-2.222656-4.390625-5.566406-4.390625-9.300781v-4.972656c0-3.734375 1.707031-7.078125 4.390625-9.300781-2.683594-2.21875-4.390625-5.5625-4.390625-9.296876v-4.972656c0-6.664062 5.445313-12.089844 12.144531-12.089844h-20.636718c-6.699219 0-12.144532 5.425782-12.144532 12.089844v4.972656c0 3.734376 1.707032 7.078126 4.390626 9.296876-2.683594 2.222656-4.390626 5.566406-4.390626 9.300781v4.972656c0 3.734375 1.707032 7.078125 4.390626 9.300781-2.683594 2.21875-4.390626 5.5625-4.390626 9.296875v4.972657c0 6.667968 5.445313 12.089843 12.144532 12.089843h20.636718c-6.699218 0-12.144531-5.421875-12.144531-12.089843zm0 0" fill="#ffc987"/><path d="m174.394531 246.308594c-18.820312 0-34.136719-15.21875-34.136719-33.925782 0-3.550781 2.90625-6.441406 6.480469-6.441406h55.308594c3.570313 0 6.476563 2.890625 6.476563 6.441406.003906 18.707032-15.308594 33.925782-34.128907 33.925782zm0 0" fill="#ffa05f"/><path d="m160.550781 212.382812c0-3.550781 2.90625-6.441406 6.480469-6.441406h-20.292969c-3.574219 0-6.480469 2.890625-6.480469 6.441406 0 18.707032 15.3125 33.925782 34.136719 33.925782 3.53125 0 6.9375-.535156 10.144531-1.53125-13.882812-4.304688-23.988281-17.199219-23.988281-32.394532zm0 0" fill="#ff812c"/><path d="m171.695312 193.359375h10.101563c4.140625 0 7.5-3.355469 7.5-7.5 0-4.140625-3.359375-7.5-7.5-7.5h-7.308594v-20.996094c0-4.144531-3.355469-7.5-7.5-7.5-4.140625 0-7.5 3.355469-7.5 7.5v23.820313c0 6.714844 5.476563 12.175781 12.207031 12.175781zm0 0"/><path d="m136.84375 167.597656v-16.914062c0-4.144532-3.355469-7.5-7.5-7.5-4.140625 0-7.5 3.355468-7.5 7.5v16.914062c0 4.140625 3.359375 7.5 7.5 7.5 4.144531 0 7.5-3.359375 7.5-7.5zm0 0"/><path d="m143.5625 137.585938c1.460938 1.453124 3.375 2.179687 5.285156 2.179687 1.925782 0 3.855469-.738281 5.320313-2.210937 2.917969-2.9375 2.90625-7.6875-.03125-10.605469-13.671875-13.585938-35.910157-13.585938-49.578125 0-2.941406 2.917969-2.953125 7.667969-.035156 10.605469 2.921874 2.9375 7.671874 2.953124 10.609374.03125 7.835938-7.789063 20.589844-7.789063 28.429688 0zm0 0"/><path d="m218.886719 143.183594c-4.140625 0-7.5 3.355468-7.5 7.5v16.914062c0 4.140625 3.359375 7.5 7.5 7.5s7.5-3.359375 7.5-7.5v-16.914062c0-4.144532-3.359375-7.5-7.5-7.5zm0 0"/><path d="m204.671875 137.585938c7.835937-7.789063 20.59375-7.789063 28.429687 0 1.464844 1.453124 3.375 2.179687 5.289063 2.179687 1.925781 0 3.851563-.738281 5.316406-2.210937 2.921875-2.9375 2.90625-7.6875-.03125-10.605469-13.667969-13.585938-35.910156-13.585938-49.578125-.003907-2.9375 2.921876-2.953125 7.667969-.035156 10.609376 2.921875 2.9375 7.671875 2.953124 10.609375.03125zm0 0"/><path d="m202.046875 198.441406h-55.308594c-7.707031 0-13.980469 6.253906-13.980469 13.941406 0 22.839844 18.675782 41.425782 41.636719 41.425782 22.953125 0 41.632813-18.585938 41.632813-41.425782 0-7.6875-6.273438-13.941406-13.980469-13.941406zm-27.652344 40.367188c-14.332031 0-26.050781-11.285156-26.617187-25.367188h53.226562c-.5625 14.082032-12.285156 25.367188-26.609375 25.367188zm0 0"/><path d="m440.597656 275.148438v-66.855469c0-7.371094-6.011718-13.363281-13.398437-13.363281h-55.464844c-7.390625 0-13.398437 5.992187-13.398437 13.363281v66.855469c0 20.015624 14.519531 36.710937 33.628906 40.230468v36.128906h-6.902344c-5.71875 0-10.855469 2.460938-14.449219 6.359376l-29.375-40.558594c-3.515625-25.757813-25.753906-45.679688-52.59375-45.679688h-30.679687l-9.984375-20.941406c12.175781-11.859375 20.988281-27.125 24.855469-44.234375h7.800781c13.609375 0 24.683593-11.035156 24.683593-24.597656v-20.695313c0-9.960937-5.976562-18.550781-14.535156-22.414062v-23.746094c0-4.140625-3.359375-7.5-7.5-7.5s-7.5 3.359375-7.5 7.5v21.5625h-.972656c-1.558594-23.804688-11.78125-44.015625-29.820312-58.738281-3.519532-2.875-7.316407-5.488281-11.335938-7.847657v-11.421874c0-6.066407-.933594-11.917969-2.660156-17.421876 2.789062-.824218 5.730468-1.277343 8.785156-1.277343h4.941406c17.128906 0 31.0625 13.851562 31.0625 30.875v8.269531c0 4.140625 3.359375 7.5 7.5 7.5s7.5-3.359375 7.5-7.5v-8.269531c0-25.296875-20.664062-45.875-46.0625-45.875h-4.941406c-5.3125 0-10.40625.917969-15.15625 2.574219-10.421875-16.460938-28.828125-27.429688-49.769531-27.429688h-58.050781c-32.425782 0-58.800782 26.269531-58.800782 58.554688v80.191406c-8.5625 3.863281-14.535156 12.453125-14.535156 22.414062v20.695313c0 13.566406 11.070312 24.597656 24.679688 24.597656h7.800781c3.867187 17.113281 12.679687 32.378906 24.855469 44.234375l-9.984376 20.945312h-37.230468c-29.273438 0-53.089844 23.691407-53.089844 52.8125v174.96875c0 6.941407 5.648438 12.585938 12.589844 12.585938h316.054687c6.941407 0 12.589844-5.648438 12.589844-12.585938v-55.265624l14.710937 20.3125c6.949219 9.59375 18.195313 15.316406 30.089844 15.316406 7.792969 0 15.269532-2.398438 21.613282-6.9375 8.050781-5.761719 13.359374-14.300782 14.949218-24.042969.410156-2.527344.550782-5.0625.441406-7.5625 7.023438-2.992187 11.957032-9.941406 11.957032-18.023437v-9.210938c0-4.140625-3.355469-7.5-7.5-7.5-4.140625 0-7.5 3.359375-7.5 7.5v9.210938c0 2.53125-2.085938 4.589843-4.644532 4.589843h-30.792968c-2.5625 0-4.644532-2.058593-4.644532-4.589843v-4.972657c0-1.355469.609376-2.640625 1.671876-3.519531 1.722656-1.421875 2.722656-3.542969 2.722656-5.777344 0-2.238281-1-4.355468-2.722656-5.78125-1.0625-.878906-1.671876-2.164062-1.671876-3.519531v-4.972656c0-1.359375.609376-2.640625 1.671876-3.519531 1.722656-1.425782 2.71875-3.542969 2.71875-5.777344 0-2.238282-.996094-4.355469-2.71875-5.78125-1.0625-.878906-1.675782-2.164063-1.675782-3.519532v-4.972656c0-2.53125 2.085938-4.589844 4.648438-4.589844h30.789062c2.5625 0 4.648438 2.058594 4.648438 4.589844v7.902344c0 4.140625 3.355468 7.5 7.5 7.5 4.140625 0 7.5-3.359375 7.5-7.5v-7.902344c0-10.800781-8.816406-19.589844-19.648438-19.589844h-8.882812v-36.128906c19.109375-3.519531 33.632812-20.214844 33.632812-40.230468zm-172.726562 52.121093-20.027344 14.058594c-5.964844 4.183594-7.535156 12.511719-3.5 18.570313l22.515625 33.777343c.300781.527344.378906 1.96875.148437 2.503907-.15625.300781-.289062.609374-.40625.929687l-35.789062 99.890625h-6.558594v-229.6875c4.109375-1.984375 8.042969-4.273438 11.777344-6.832031zm-58.617188 57.5625-7.238281 10.425781-6.960937-35.804687 8.46875-12.425781 5.730468 3.925781zm-69.722656-34.460937 5.496094-3.683594 8.703125 12.769531-6.957031 35.800781-7.238282-10.425781v-34.460937zm28.355469 3.222656-10.398438-15.261719 16.859375-11.308593 16.804688 11.523437-10.257813 15.046875c-1.125 1.652344-1.542969 3.6875-1.164062 5.652344l10.34375 53.210937-15.683594 22.59375-15.683594-22.59375 10.34375-53.210937c.382813-1.964844-.035156-4-1.164062-5.652344zm41.367187-20.824219-29.621094-20.308593c.28125-.277344.550782-.566407.789063-.890626l28.503906-38.535156c.109375-.027344.21875-.058594.324219-.085937v59.820312zm-34.859375-38.269531-13.574219-18.347656c.90625.027344 1.8125.046875 2.722657.046875h21.699219c.910156 0 1.816406-.019531 2.722656-.046875zm-34.539062-21.464844 28.507812 38.535156c.234375.320313.5.609376.78125.878907l-29.613281 19.859375v-59.363282c.109375.03125.21875.0625.324219.089844zm-.324219 138.101563 28.699219 41.339843c1.402343 2.019532 3.703125 3.222657 6.160156 3.222657 2.460937 0 4.761719-1.203125 6.164063-3.222657l28.695312-41.339843v85.863281h-69.71875zm150.789062-229.28125c0 5.292969-4.34375 9.597656-9.683593 9.597656h-5.730469c.078125-1.539063.121094-3.085937.121094-4.644531v-35.246094h5.609375c5.339843 0 9.683593 4.304688 9.683593 9.597656zm-173.515624-166.855469h58.050781c24.152343 0 43.800781 19.539062 43.800781 43.554688v4.257812c-13.363281-5.109375-28.40625-7.824219-44.261719-7.824219-27.492187 0-52.5625 8.109375-70.601562 22.835938-18.039063 14.726562-28.261719 34.9375-29.820313 58.738281h-.96875v-78.007812c0-24.015626 19.648438-43.554688 43.800782-43.554688zm-48.65625 176.453125c-5.335938 0-9.679688-4.304687-9.679688-9.597656v-20.695313c0-5.292968 4.339844-9.597656 9.679688-9.597656h5.609374v35.246094c0 1.558594.042969 3.105468.121094 4.644531zm20.609374-4.644531v-43.789063c0-36.351562 26.480469-73.03125 85.636719-73.03125 59.152344 0 85.632813 36.679688 85.632813 73.03125v43.789063c0 41.019531-33.546875 74.390625-74.785156 74.390625h-21.699219c-41.238281 0-74.785157-33.371094-74.785157-74.390625zm-73.257812 137.636718c0-20.851562 17.085938-37.816406 38.089844-37.816406h30.078125l-16.46875 34.546875c-3.011719 6.183594-.953125 14.128907 4.683593 18.085938l19.273438 13.523437-21.726562 32.59375c-3.199219 4.804688-3.6875 11.925782-1.230469 17.179688l9.308593 25.972656c1.394532 3.898438 5.6875 5.929688 9.589844 4.53125 3.898438-1.398438 5.925782-5.691406 4.53125-9.589844l-9.445312-26.363281c-.117188-.320313-.238282-.605469-.394532-.90625-.242187-.558594-.164062-2 .121094-2.507813l22.527344-33.796874c4.039062-6.054688 2.46875-14.386719-3.492188-18.570313l-20.035156-14.058594 31.84375-66.789062c3.730469 2.558593 7.667969 4.847656 11.777344 6.832031v229.6875h-6.5625l-14.160156-39.53125c-1.398438-3.898438-5.691406-5.925781-9.589844-4.53125-3.902344 1.398438-5.929688 5.691406-4.53125 9.589844l12.351562 34.472656h-59.132812v-116.726562c0-4.144532-3.355469-7.5-7.5-7.5-4.140625 0-7.5 3.355468-7.5 7.5v116.726562h-12.40625zm311.234375 172.554688h-79.988281l33.839844-94.441406c2.453124-5.253906 1.96875-12.375-1.234376-17.179688l-21.722656-32.59375 19.269532-13.523437c5.640624-3.960938 7.695312-11.902344 4.710937-18.027344l-16.496094-34.605469h23.527344c21.003906 0 38.09375 16.964844 38.09375 37.816406zm58.324219-54.199219h23.503906c.007812 1.1875-.074219 2.386719-.269531 3.585938-.941407 5.773437-4.09375 10.835937-8.875 14.253906-3.78125 2.707031-8.238281 4.140625-12.882813 4.140625-7.097656 0-13.804687-3.410156-17.9375-9.121094l-26.863281-37.082031v-75.007813l23.6875 32.699219c.03125 3.222657.847656 6.335938 2.34375 9.101563-1.527344 2.820312-2.351563 6.003906-2.351563 9.296875v4.972656c0 3.296875.824219 6.480469 2.351563 9.300781-1.527344 2.820313-2.351563 6-2.351563 9.296875v4.972657c0 10.800781 8.8125 19.589843 19.644532 19.589843zm-11.726563-232.871093h52.265625v18.425781h-52.265625zm26.132813 91.144531c-14.410156 0-26.132813-11.632813-26.132813-25.925781v-31.792969h52.265625v31.792969c0 14.292968-11.722656 25.925781-26.132812 25.925781zm0 0"/></svg>