<svg xmlns="http://www.w3.org/2000/svg" xmlns:xlink="http://www.w3.org/1999/xlink" viewBox="0 0 274.13 50.92"><defs><style>.cls-1{fill:url(#linear-gradient);}</style><linearGradient id="linear-gradient" x1="137.07" x2="137.07" y2="51.36" gradientUnits="userSpaceOnUse"><stop offset="0" stop-color="#fff33b"/><stop offset="0.04" stop-color="#fee72e"/><stop offset="0.13" stop-color="#fed51b"/><stop offset="0.21" stop-color="#fdca10"/><stop offset="0.3" stop-color="#fdc70c"/><stop offset="0.75" stop-color="#f3903f"/><stop offset="0.91" stop-color="#ed683c"/></linearGradient></defs><title>Logo1</title><g id="Layer_2" data-name="Layer 2"><g id="Layer_1-2" data-name="Layer 1"><path class="cls-1" d="M270,40.9a1.52,1.52,0,0,1-.8-1.47q0-1.74,2.32-6.58c1.55-3.23,2.32-5.49,2.32-6.76q0-2.27-4.26-4.56-2.35-1.3-3.83-2.23a5.64,5.64,0,0,0,.46-1.21,5.19,5.19,0,0,0,.15-1.29,3,3,0,0,0-.93-2.32A3.87,3.87,0,0,0,260,15a5.2,5.2,0,0,0-1.15,3.46,5.1,5.1,0,0,0,.32,1.86,4.19,4.19,0,0,0,1,1.48q-3.92,10.62-6.91,14.9t-6.58,4.89a10.63,10.63,0,0,1-4.65-1.1,2.88,2.88,0,0,1-1.57-2.58,9.6,9.6,0,0,1,.24-1.88,26.16,26.16,0,0,1,.72-2.71l2.84-9.37h4.27a4.12,4.12,0,0,0,1.63-.23,1.27,1.27,0,0,0,.63-.79l.5-1.39a1.85,1.85,0,0,0,0-.23,2.17,2.17,0,0,0,0-.26.54.54,0,0,0-.28-.51,1.79,1.79,0,0,0-.85-.16h-4.87l3.34-9.81c.11-.35.29-.81.52-1.39a7.84,7.84,0,0,0,.67-2.24c0-.58-.36-1-1.08-1.34a7.48,7.48,0,0,0-3-.48c-1.8,0-3,1.25-3.6,3.77-.21.89-.39,1.59-.55,2.09l-2.84,9.4h-2.15a4.52,4.52,0,0,0-1.66.2,1.18,1.18,0,0,0-.6.76L234,22.72a2.87,2.87,0,0,0-.11.35.76.76,0,0,0,0,.14.66.66,0,0,0,.23.57,1.64,1.64,0,0,0,.87.16h2.82l-2.44,8.62q-1.4,4.95-3.21,6.83A7.81,7.81,0,0,1,227,41.58h-.38a11.17,11.17,0,0,1-3.52-.48,7.31,7.31,0,0,1-2.66-1.61,26.06,26.06,0,0,0,6.69-7.3,14.84,14.84,0,0,0,2.51-7.55,6.82,6.82,0,0,0-1.76-4.95,6.33,6.33,0,0,0-4.77-1.82,12.35,12.35,0,0,0-9.36,4.3,14.41,14.41,0,0,0-4,10.1,16.52,16.52,0,0,0,.52,4.35A9.76,9.76,0,0,0,212,39.93a19.86,19.86,0,0,1-3.29,1.1,23.84,23.84,0,0,1-3.61.54,10.52,10.52,0,0,1-1.82-.16,5.7,5.7,0,0,1-1.54-.53,10.47,10.47,0,0,0,2.19-3.64,12.78,12.78,0,0,0,.8-4.45,11.48,11.48,0,0,0-1.13-4.92,22.59,22.59,0,0,0-3.69-5.24,9.5,9.5,0,0,0,2.18-2.46,4.94,4.94,0,0,0,.73-2.47,2.68,2.68,0,0,0-.86-2.08,3.33,3.33,0,0,0-2.31-.76,5.93,5.93,0,0,0-4.18,1.62,5.15,5.15,0,0,0-1.74,3.89A4.72,4.72,0,0,0,194,22a3.26,3.26,0,0,0,.83,1.26,79.77,79.77,0,0,1-9.33,13.1,14.68,14.68,0,0,1-11.35,5h0a36.11,36.11,0,0,0-72.22,0A36.31,36.31,0,0,1,96.48,41a1.56,1.56,0,0,1-.81-1.51,9.62,9.62,0,0,1,.42-2.16A29.55,29.55,0,0,1,97.23,34L98,32.21q3.36-8.33,3.36-10.3a3.58,3.58,0,0,0-1-2.72,4,4,0,0,0-2.84-1c-2.4,0-4.86,1.13-7.36,3.38a49.82,49.82,0,0,0-8.28,10.72q1.4-4.17,3.19-8.64a34.45,34.45,0,0,0,1.8-5q0-.67-1-.93a13.63,13.63,0,0,0-3.25-.26q-2.52,0-3.69,5.39-.9,4-1.74,7Q75.44,36,73.32,38.72a6.67,6.67,0,0,1-5.16,2.86,6,6,0,0,1-3-.65,2.34,2.34,0,0,1-.77-2,16.1,16.1,0,0,1,.68-4,61.32,61.32,0,0,1,2.1-6.16q1-2.61,2.35-5.57a22.39,22.39,0,0,0,1.34-3.28c0-.58-.49-1.09-1.45-1.51A8.24,8.24,0,0,0,66,17.7c-1.35,0-2.42,1.36-3.19,4.09a57,57,0,0,1-2.41,6.91,37.42,37.42,0,0,1-4.84,8.6Q53,40.51,51.07,40.51A1.71,1.71,0,0,1,49.78,40a1.88,1.88,0,0,1-.45-1.36,12.19,12.19,0,0,1,.74-3.37c.49-1.52,1.34-3.75,2.54-6.67q1.1-2.67,2.48-5.57a20.61,20.61,0,0,0,1.38-3.22c0-.56-.64-1.09-1.9-1.58a10.48,10.48,0,0,0-3.88-.74c-1,0-2,1.53-3,4.61-.31.93-.56,1.66-.75,2.21s-.49,1.45-.87,2.55q-3,8.85-3,11.72c0,.29,0,.51,0,.65s0,.29,0,.42A14.54,14.54,0,0,1,40,41a14.31,14.31,0,0,1-3.32.55v0q-1.12-.18-2.07-.36c-.63-.13-1.22-.27-1.78-.42a13,13,0,0,0,2.78-8.22,11.69,11.69,0,0,0-2-6.81A19.2,19.2,0,0,0,27,20.31l-1.13-.64q-6-3.27-6-7.08A6.54,6.54,0,0,1,22.57,7.2a11,11,0,0,1,7-2.09A9.09,9.09,0,0,1,35,6.5a5.74,5.74,0,0,1,2.22,4.24h.4a3.51,3.51,0,0,0,2.62-1,3.63,3.63,0,0,0,1-2.65,6,6,0,0,0-3-5.09,13.76,13.76,0,0,0-7.79-2Q22.92,0,18.18,4a12.58,12.58,0,0,0-4.75,10.12,9.83,9.83,0,0,0,1.82,6q1.82,2.45,6.92,5.35,4.38,2.52,5.57,4.16a6.64,6.64,0,0,1,1.19,4,9.45,9.45,0,0,1-.58,3.14,11.29,11.29,0,0,1-1.57,3l-5.66-1.53Q10.83,35.34,7.66,35.34q-3.82,0-5.75,1.58A5.8,5.8,0,0,0,0,41.64a7.71,7.71,0,0,0,4,6.73q4,2.55,10.75,2.55a22,22,0,0,0,8.47-1.59,18.89,18.89,0,0,0,6.73-4.7q1.11.28,2.43.51t3.15.36A20.3,20.3,0,0,0,40,44.7a13.27,13.27,0,0,0,3.56-1.76,3.65,3.65,0,0,0,1.75,1.92,6.62,6.62,0,0,0,3.07.64,8.25,8.25,0,0,0,5.33-2.12q2.53-2.12,6.83-8.5c-.48,1.56-.83,2.83-1,3.8a11.82,11.82,0,0,0-.31,2.44,3.65,3.65,0,0,0,1.61,3.41c1.07.64,3,1,5.76,1h.55a11.64,11.64,0,0,0,3.84-.83,9,9,0,0,0,3-2,9,9,0,0,0-.51,1.21,2.45,2.45,0,0,0-.16.77.79.79,0,0,0,.46.77,4.38,4.38,0,0,0,1.63.21,4.67,4.67,0,0,0,4.76-3.3c.42-1.2.82-2.22,1.19-3.05A43.9,43.9,0,0,1,87.53,28.7q3.59-4.35,5.29-4.35a1.06,1.06,0,0,1,.77.23.91.91,0,0,1,.25.72,17.89,17.89,0,0,1-1.48,3.95l-.23.55c-1.14,2.67-2,4.87-2.56,6.59a13.94,13.94,0,0,0-.84,3.83,4.28,4.28,0,0,0,2.22,4q2.22,1.28,7,1.28l5.64-.08h3.6a31.11,31.11,0,1,1,61.66,0h4.87a16.17,16.17,0,0,0,10.09-2.59,9.19,9.19,0,0,0,3.37,2,12.25,12.25,0,0,0,4.29.74,14.84,14.84,0,0,0,3.06-.34,20.21,20.21,0,0,0,3.41-1.08,14.3,14.3,0,0,0,3,1,14.82,14.82,0,0,0,3,.31h1l0-.07a27.86,27.86,0,0,0,4.68-.77,31.76,31.76,0,0,0,5.64-2.06,11.92,11.92,0,0,0,4.27,2.19,20.83,20.83,0,0,0,5.71.71h.79a13.85,13.85,0,0,0,4.6-1,15.36,15.36,0,0,0,4.1-2.52,7.21,7.21,0,0,0,3.77,2.65,19.75,19.75,0,0,0,6.47.92h.7a13.49,13.49,0,0,0,9.79-5.23q4.14-4.92,8-16.15A16.52,16.52,0,0,1,266,25.84a1.86,1.86,0,0,1,.75,1.32q0,1.34-2.19,6.08c-1.46,3.16-2.19,5.55-2.19,7.15a4.08,4.08,0,0,0,2.3,3.9c1.52.81,4,1.21,7.51,1.21H273l1.13-3.89A14.33,14.33,0,0,1,270,40.9ZM19.92,45.57a17.53,17.53,0,0,1-5.18.71A15.4,15.4,0,0,1,7.91,45c-1.75-.87-2.63-2-2.63-3.28a1.74,1.74,0,0,1,.57-1.46,3.31,3.31,0,0,1,1.93-.43,29.81,29.81,0,0,1,5.23.86q3.86.86,10.93,2.77A11.75,11.75,0,0,1,19.92,45.57Zm176.16-6.75a6.67,6.67,0,0,1-4.28,2.76,6.59,6.59,0,0,0-1.29-2.13,5.09,5.09,0,0,0-1.9-1.27,51,51,0,0,0,4.75-5.62,31.58,31.58,0,0,0,3.2-5.34,31.46,31.46,0,0,1,.81,3.26,16.24,16.24,0,0,1,.26,2.77A9.47,9.47,0,0,1,196.08,38.82Zm23.08-2.35a5.16,5.16,0,0,1-1-1.87,8,8,0,0,1-.32-2.45,11.75,11.75,0,0,1,1.85-6.57q1.86-2.83,4.27-2.83a2.33,2.33,0,0,1,1.77.65,2.68,2.68,0,0,1,.61,1.9,11.64,11.64,0,0,1-2.06,5.85A16.73,16.73,0,0,1,219.16,36.47Z"/></g></g></svg>