<svg xmlns="http://www.w3.org/2000/svg" xmlns:xlink="http://www.w3.org/1999/xlink" viewBox="0 0 316.92 50.92"><defs><style>.cls-1{fill:url(#linear-gradient);}.cls-2{fill:url(#linear-gradient-2);}.cls-3{fill:none;}.cls-4{fill:url(#linear-gradient-3);}.cls-5{fill:url(#linear-gradient-4);}</style><linearGradient id="linear-gradient" x1="291.6" y1="13.61" x2="291.6" y2="45.5" gradientUnits="userSpaceOnUse"><stop offset="0" stop-color="#fff33b"/><stop offset="0.04" stop-color="#fee72e"/><stop offset="0.13" stop-color="#fed51b"/><stop offset="0.21" stop-color="#fdca10"/><stop offset="0.3" stop-color="#fdc70c"/><stop offset="0.75" stop-color="#f3903f"/><stop offset="0.91" stop-color="#ed683c"/></linearGradient><linearGradient id="linear-gradient-2" x1="259.32" y1="5.11" x2="259.32" y2="45.5" xlink:href="#linear-gradient"/><linearGradient id="linear-gradient-3" x1="228.59" y1="5.11" x2="228.59" y2="45.5" xlink:href="#linear-gradient"/><linearGradient id="linear-gradient-4" x1="102.98" y1="0" x2="102.98" y2="50.92" xlink:href="#linear-gradient"/></defs><title>Asset 10</title><g id="Layer_2" data-name="Layer 2"><g id="Layer_1-2" data-name="Layer 1"><path class="cls-1" d="M312.78,40.9a1.52,1.52,0,0,1-.8-1.47c0-1.16.78-3.35,2.32-6.58s2.33-5.49,2.33-6.76c0-1.51-1.43-3-4.27-4.56-1.57-.87-2.84-1.62-3.83-2.23a5.16,5.16,0,0,0,.46-1.21,5.25,5.25,0,0,0,.15-1.29,3,3,0,0,0-.93-2.32,3.54,3.54,0,0,0-2.52-.87A3.6,3.6,0,0,0,302.8,15a5.25,5.25,0,0,0-1.15,3.46,5.1,5.1,0,0,0,.32,1.86,4.33,4.33,0,0,0,1,1.48q-3.91,10.62-6.91,14.9t-6.58,4.89h-.35a11.28,11.28,0,0,1-3.53-.48,7.36,7.36,0,0,1-2.65-1.61,26.37,26.37,0,0,0,6.69-7.3,14.84,14.84,0,0,0,2.51-7.55,6.82,6.82,0,0,0-1.76-4.95,6.33,6.33,0,0,0-4.77-1.82,12.35,12.35,0,0,0-9.36,4.3,14.41,14.41,0,0,0-4,10.1,16.11,16.11,0,0,0,.52,4.35,9.76,9.76,0,0,0,1.63,3.31,20.28,20.28,0,0,1-3.3,1.1,23.44,23.44,0,0,1-3.7.55l-1.16,3.92a27.63,27.63,0,0,0,5.7-.84,31.85,31.85,0,0,0,5.65-2.06,12,12,0,0,0,4.26,2.19,20.9,20.9,0,0,0,5.72.71h.79a13.54,13.54,0,0,0,9.76-5.23q4.13-4.92,8-16.15a16.52,16.52,0,0,1,2.55,1.73,1.84,1.84,0,0,1,.76,1.32q0,1.34-2.19,6.08t-2.19,7.15a4.08,4.08,0,0,0,2.29,3.9q2.3,1.22,7.51,1.21h.87l1.14-3.89A14.35,14.35,0,0,1,312.78,40.9Zm-32.16-4.43a5,5,0,0,1-1.05-1.87,8.42,8.42,0,0,1-.32-2.45,11.66,11.66,0,0,1,1.86-6.57q1.86-2.83,4.27-2.83a2.33,2.33,0,0,1,1.77.65,2.72,2.72,0,0,1,.6,1.9,11.57,11.57,0,0,1-2.06,5.85A16.59,16.59,0,0,1,280.62,36.47Z"/><path class="cls-2" d="M262.71,40.48a2.88,2.88,0,0,1-1.56-2.59,9.47,9.47,0,0,1,.23-1.87,25.84,25.84,0,0,1,.73-2.71L265,23.94h4.26a4.09,4.09,0,0,0,1.63-.23,1.28,1.28,0,0,0,.64-.79l.49-1.39a1.85,1.85,0,0,0,0-.23,2.11,2.11,0,0,0,0-.26.54.54,0,0,0-.29-.51,1.77,1.77,0,0,0-.84-.16H266l3.34-9.81c.11-.35.29-.81.52-1.39a7.51,7.51,0,0,0,.67-2.24q0-.87-1.08-1.35a7.67,7.67,0,0,0-3-.47c-1.8,0-3,1.25-3.6,3.77-.22.89-.4,1.58-.55,2.09l-2.85,9.4h-2.14a4.58,4.58,0,0,0-1.67.2,1.21,1.21,0,0,0-.6.76l-.46,1.39a2.33,2.33,0,0,0-.1.35.93.93,0,0,0,0,.14.66.66,0,0,0,.23.57,1.66,1.66,0,0,0,.88.16h2.81L256,32.56q-1.39,4.95-3.2,6.83a7.83,7.83,0,0,1-5.07,2.19l-1.1,3.92a13.79,13.79,0,0,0,4.6-1,15.26,15.26,0,0,0,4.11-2.52,7.17,7.17,0,0,0,3.77,2.65,19.71,19.71,0,0,0,6.47.92h.69l1.14-3.92A10.64,10.64,0,0,1,262.71,40.48Z"/><path class="cls-3" d="M196.56,27.22a31.58,31.58,0,0,1-3.2,5.34,51,51,0,0,1-4.75,5.62,5.09,5.09,0,0,1,1.9,1.27,6.59,6.59,0,0,1,1.29,2.13,6.67,6.67,0,0,0,4.28-2.76,9.47,9.47,0,0,0,1.55-5.57,16.24,16.24,0,0,0-.26-2.77A31.46,31.46,0,0,0,196.56,27.22Z"/><path class="cls-3" d="M7.78,39.81a3.23,3.23,0,0,0-1.93.43,1.74,1.74,0,0,0-.57,1.46c0,1.31.88,2.4,2.63,3.27a15.25,15.25,0,0,0,6.83,1.31,17.53,17.53,0,0,0,5.18-.71,11.75,11.75,0,0,0,4-2.13Q16.86,41.52,13,40.67A29.81,29.81,0,0,0,7.78,39.81Z"/><path class="cls-3" d="M224.24,31.15a11.67,11.67,0,0,0,2.06-5.85,2.68,2.68,0,0,0-.61-1.9,2.33,2.33,0,0,0-1.77-.65q-2.41,0-4.27,2.83a11.73,11.73,0,0,0-1.85,6.57,8.09,8.09,0,0,0,.32,2.45,5.16,5.16,0,0,0,1,1.87A16.62,16.62,0,0,0,224.24,31.15Z"/><path class="cls-4" d="M252.07,20.53a1.79,1.79,0,0,0-.85-.16h-4.87l3.34-9.81c.11-.35.29-.81.52-1.39a7.84,7.84,0,0,0,.67-2.24q0-.87-1.08-1.35a7.69,7.69,0,0,0-3-.47c-1.8,0-3,1.25-3.6,3.77-.21.89-.39,1.58-.55,2.09l-2.84,9.4h-2.15a4.62,4.62,0,0,0-1.67.2,1.2,1.2,0,0,0-.59.76L235,22.72a2.87,2.87,0,0,0-.11.35.76.76,0,0,0,0,.14.66.66,0,0,0,.23.57,1.64,1.64,0,0,0,.87.16h2.82l-2.44,8.62q-1.4,4.95-3.21,6.83A7.81,7.81,0,0,1,228,41.58h-.38a11.21,11.21,0,0,1-3.52-.48,7.31,7.31,0,0,1-2.66-1.61,26.06,26.06,0,0,0,6.69-7.3,14.84,14.84,0,0,0,2.51-7.55,6.78,6.78,0,0,0-1.76-4.95,6.33,6.33,0,0,0-4.77-1.82,12.35,12.35,0,0,0-9.36,4.3,14.41,14.41,0,0,0-4,10.1,16.52,16.52,0,0,0,.52,4.35A9.76,9.76,0,0,0,213,39.93a19.86,19.86,0,0,1-3.29,1.1,23.8,23.8,0,0,1-3.7.55l-1.16,3.92a27.83,27.83,0,0,0,5.7-.84,31.76,31.76,0,0,0,5.64-2.06,11.92,11.92,0,0,0,4.27,2.19,20.83,20.83,0,0,0,5.71.71h.79a13.85,13.85,0,0,0,4.6-1,15.36,15.36,0,0,0,4.1-2.52,7.21,7.21,0,0,0,3.77,2.65,19.75,19.75,0,0,0,6.47.92h.7l1.13-3.92a10.59,10.59,0,0,1-4.67-1.1,2.89,2.89,0,0,1-1.57-2.59,9.61,9.61,0,0,1,.24-1.87,25.51,25.51,0,0,1,.72-2.71l2.84-9.37h4.27a4.12,4.12,0,0,0,1.63-.23,1.27,1.27,0,0,0,.63-.79l.5-1.39a1.85,1.85,0,0,0,0-.23,2.11,2.11,0,0,0,0-.26A.54.54,0,0,0,252.07,20.53ZM219.16,36.47a5.16,5.16,0,0,1-1-1.87,8.09,8.09,0,0,1-.32-2.45,11.73,11.73,0,0,1,1.85-6.57q1.86-2.83,4.27-2.83a2.33,2.33,0,0,1,1.77.65,2.68,2.68,0,0,1,.61,1.9,11.67,11.67,0,0,1-2.06,5.85A16.62,16.62,0,0,1,219.16,36.47Z"/><path class="cls-5" d="M205.35,41.58a11.38,11.38,0,0,1-2.09-.17,5.7,5.7,0,0,1-1.54-.53,10.47,10.47,0,0,0,2.19-3.64,12.78,12.78,0,0,0,.8-4.45,11.45,11.45,0,0,0-1.13-4.92,22.59,22.59,0,0,0-3.69-5.24,9.5,9.5,0,0,0,2.18-2.46,5,5,0,0,0,.73-2.47,2.68,2.68,0,0,0-.86-2.08,3.33,3.33,0,0,0-2.31-.76,5.93,5.93,0,0,0-4.18,1.62,5.15,5.15,0,0,0-1.74,3.89A4.72,4.72,0,0,0,194,22a3.33,3.33,0,0,0,.83,1.26,80.2,80.2,0,0,1-9.33,13.1c-2.89,3.17-6.88,4.15-11.36,4.6a36.1,36.1,0,0,0-72.19-.63,6,6,0,0,1-5.43.72,1.56,1.56,0,0,1-.81-1.51,9.52,9.52,0,0,1,.42-2.16A29.55,29.55,0,0,1,97.23,34L98,32.21q3.36-8.33,3.37-10.3a3.59,3.59,0,0,0-1-2.72,4,4,0,0,0-2.84-1c-2.4,0-4.86,1.13-7.36,3.38a49.82,49.82,0,0,0-8.28,10.72q1.4-4.17,3.19-8.64a34.31,34.31,0,0,0,1.8-5c0-.44-.32-.75-1-.92a13.63,13.63,0,0,0-3.25-.26q-2.52,0-3.69,5.39c-.59,2.69-1.18,5-1.74,7Q75.44,36,73.33,38.72a6.7,6.7,0,0,1-5.17,2.86,6,6,0,0,1-3-.65,2.34,2.34,0,0,1-.77-2,16.1,16.1,0,0,1,.68-4,61.32,61.32,0,0,1,2.1-6.16q1-2.61,2.35-5.57a22.39,22.39,0,0,0,1.34-3.28c0-.58-.49-1.09-1.45-1.51A8.24,8.24,0,0,0,66,17.7c-1.35,0-2.42,1.36-3.19,4.09a57,57,0,0,1-2.41,6.91,37.64,37.64,0,0,1-4.84,8.6Q53,40.51,51.07,40.51A1.71,1.71,0,0,1,49.78,40a1.88,1.88,0,0,1-.45-1.36,12.58,12.58,0,0,1,.74-3.37q.74-2.3,2.54-6.67,1.1-2.67,2.48-5.57a20.61,20.61,0,0,0,1.38-3.22c0-.56-.64-1.09-1.9-1.58a10.48,10.48,0,0,0-3.88-.74c-1,0-2,1.53-3,4.61-.31.93-.56,1.66-.75,2.2s-.49,1.45-.87,2.56q-3,8.85-3,11.72c0,.29,0,.51,0,.65s0,.29,0,.42A15.06,15.06,0,0,1,40,41a14.31,14.31,0,0,1-3.32.55v0q-1.12-.18-2.07-.36c-.63-.13-1.22-.27-1.78-.42a13,13,0,0,0,2.78-8.22,11.75,11.75,0,0,0-2-6.82A19.3,19.3,0,0,0,27,20.31l-1.13-.64q-6-3.27-6-7.08A6.52,6.52,0,0,1,22.58,7.2a10.91,10.91,0,0,1,7-2.09A9.09,9.09,0,0,1,35,6.5a5.74,5.74,0,0,1,2.22,4.24h.4a3.51,3.51,0,0,0,2.62-1,3.63,3.63,0,0,0,1-2.65,6,6,0,0,0-3-5.09,13.76,13.76,0,0,0-7.79-2Q22.92,0,18.18,4a12.58,12.58,0,0,0-4.75,10.12,9.83,9.83,0,0,0,1.82,6q1.82,2.45,6.92,5.35,4.38,2.52,5.57,4.16a6.64,6.64,0,0,1,1.19,4,9.35,9.35,0,0,1-.58,3.13,11.2,11.2,0,0,1-1.57,3l-5.66-1.53Q10.83,35.34,7.66,35.34q-3.82,0-5.75,1.58A5.8,5.8,0,0,0,0,41.64a7.71,7.71,0,0,0,4,6.73q4,2.55,10.75,2.55a22,22,0,0,0,8.47-1.59A19,19,0,0,0,30,44.63c.73.19,1.54.36,2.42.51s1.93.26,3.15.36A20.3,20.3,0,0,0,40,44.7a13.27,13.27,0,0,0,3.56-1.76,3.69,3.69,0,0,0,1.75,1.92,6.62,6.62,0,0,0,3.07.64,8.25,8.25,0,0,0,5.33-2.12q2.53-2.12,6.83-8.5c-.48,1.56-.83,2.83-1,3.8a11.82,11.82,0,0,0-.31,2.44,3.62,3.62,0,0,0,1.61,3.4q1.61,1,5.76,1h.55a11.64,11.64,0,0,0,3.84-.83,9,9,0,0,0,3-2,9,9,0,0,0-.51,1.21,2.45,2.45,0,0,0-.16.77.79.79,0,0,0,.46.77,4.38,4.38,0,0,0,1.63.21,4.67,4.67,0,0,0,4.76-3.3c.42-1.2.82-2.22,1.19-3.05A43.9,43.9,0,0,1,87.53,28.7q3.59-4.36,5.29-4.36a1.06,1.06,0,0,1,.77.24.91.91,0,0,1,.25.72,17.89,17.89,0,0,1-1.48,3.95l-.23.55c-1.14,2.67-2,4.86-2.56,6.59a13.94,13.94,0,0,0-.84,3.83,4.29,4.29,0,0,0,2.22,4q2.22,1.28,7,1.28l5.06-.08,4.16-.12a31.12,31.12,0,1,1,61.69,0s4.7.17,5,.12h0a24.08,24.08,0,0,0,6.84-.84,12.9,12.9,0,0,0,3.08-1.74,9.19,9.19,0,0,0,3.37,2,12.25,12.25,0,0,0,4.29.74,14.84,14.84,0,0,0,3.06-.34,21.17,21.17,0,0,0,3.41-1.08,14.3,14.3,0,0,0,3,1,14.88,14.88,0,0,0,3.1.32h.85L206,41.58Zm-185.43,4a17.53,17.53,0,0,1-5.18.71A15.25,15.25,0,0,1,7.91,45c-1.75-.87-2.63-2-2.63-3.27a1.74,1.74,0,0,1,.57-1.46,3.23,3.23,0,0,1,1.93-.43,29.81,29.81,0,0,1,5.23.86q3.86.86,10.93,2.77A11.75,11.75,0,0,1,19.92,45.57Zm176.16-6.75a6.67,6.67,0,0,1-4.28,2.76,6.59,6.59,0,0,0-1.29-2.13,5.09,5.09,0,0,0-1.9-1.27,51,51,0,0,0,4.75-5.62,31.58,31.58,0,0,0,3.2-5.34,31.46,31.46,0,0,1,.81,3.26,16.24,16.24,0,0,1,.26,2.77A9.47,9.47,0,0,1,196.08,38.82Z"/></g></g></svg>