<?xml version="1.0" encoding="iso-8859-1"?>
<!-- Generator: Adobe Illustrator 19.0.0, SVG Export Plug-In . SVG Version: 6.00 Build 0)  -->
<svg version="1.1" id="Capa_1" xmlns="http://www.w3.org/2000/svg" xmlns:xlink="http://www.w3.org/1999/xlink" x="0px" y="0px"
	 viewBox="0 0 512 512" style="enable-background:new 0 0 512 512;" xml:space="preserve">
<path style="fill:#FE4C72;" d="M437.02,74.981C388.668,26.629,324.381,0,256,0c-46.006,0-90.676,12.213-129.964,35.408L95.021,4.394
	c-4.291-4.291-10.743-5.57-16.347-3.252c-5.605,2.322-9.26,7.791-9.26,13.858v71.773c0,8.284,6.716,15,15,15h71.773
	c6.067,0,11.536-3.654,13.858-9.26c2.321-5.605,1.038-12.057-3.252-16.347l-18.755-18.754C181.037,39.435,217.998,30,256,30
	c124.617,0,226,101.383,226,226S380.617,482,256,482S30,380.617,30,256c0-8.284-6.716-15-15-15s-15,6.716-15,15
	c0,68.38,26.629,132.667,74.981,181.019S187.62,512,256,512s132.668-26.629,181.02-74.981C485.371,388.667,512,324.38,512,256
	S485.371,123.333,437.02,74.981z"/>
<path style="fill:#663E2C;" d="M352.4,271H256c-8.284,0-15-6.716-15-15v-96.4c0-8.284,6.716-15,15-15s15,6.716,15,15V241h81.4
	c8.284,0,15,6.716,15,15S360.685,271,352.4,271z"/>
<path style="fill:#CF1F62;" d="M437.02,74.981C388.668,26.629,324.381,0,256,0v30c124.617,0,226,101.383,226,226
	S380.617,482,256,482v30c68.38,0,132.668-26.629,181.02-74.981C485.371,388.667,512,324.38,512,256S485.371,123.333,437.02,74.981z"
	/>
<path style="fill:#482F21;" d="M367.4,256c0-8.284-6.716-15-15-15H271v-81.4c0-8.284-6.716-15-15-15V271h96.4
	C360.685,271,367.4,264.284,367.4,256z"/>
<g>
</g>
<g>
</g>
<g>
</g>
<g>
</g>
<g>
</g>
<g>
</g>
<g>
</g>
<g>
</g>
<g>
</g>
<g>
</g>
<g>
</g>
<g>
</g>
<g>
</g>
<g>
</g>
<g>
</g>
</svg>
