<svg xmlns="http://www.w3.org/2000/svg" xmlns:xlink="http://www.w3.org/1999/xlink" viewBox="0 0 65.79 90.72"><defs><style>.cls-1{fill:url(#linear-gradient);}.cls-2{fill:#fff;}.cls-3{fill:none;stroke:#231f20;stroke-miterlimit:10;stroke-width:3px;}</style><linearGradient id="linear-gradient" x1="32.89" y1="1.5" x2="32.89" y2="89.22" gradientUnits="userSpaceOnUse"><stop offset="0" stop-color="#fff33b"/><stop offset="0.04" stop-color="#fee72e"/><stop offset="0.13" stop-color="#fed51b"/><stop offset="0.21" stop-color="#fdca10"/><stop offset="0.3" stop-color="#fdc70c"/><stop offset="0.75" stop-color="#f3903f"/><stop offset="0.91" stop-color="#ed683c"/></linearGradient></defs><title>Asset 2</title><g id="Layer_2" data-name="Layer 2"><g id="Layer_1-2" data-name="Layer 1"><path class="cls-1" d="M64.29,32.89c0,19.64-29.38,58.09-31.4,56.26C17.83,75.55,1.5,50.23,1.5,32.89a31.4,31.4,0,0,1,62.79,0Z"/><path class="cls-2" d="M65.4,28.34a1.5,1.5,0,0,0-2-.75L51.61,32.92a21,21,0,0,0-2.39-3.57l10.27-14.1c.49-.67-1.38-3.2-1.87-2.53L47.1,27.17a20.63,20.63,0,0,0-4.42-3.09L50.21,6.43a1.5,1.5,0,1,0-2.76-1.18L39.93,22.89a21.24,21.24,0,0,0-5.54-1.15V1.5a1.5,1.5,0,0,0-3,0V21.74a21.2,21.2,0,0,0-5.13,1L18,5.41a1.5,1.5,0,1,0-2.71,1.3l8.24,17.18a21.32,21.32,0,0,0-4.2,2.73L8.67,14.43a1.5,1.5,0,1,0-2.27,2L17.14,28.72a21.34,21.34,0,0,0-3.08,4.44L2.58,26.86a1.5,1.5,0,0,0-1.45,2.63l11.75,6.44a20.88,20.88,0,0,0-1,4H1.5c-.83,0,.06,3,.89,3H62.92a1.5,1.5,0,0,0,0-3H53.86a21.09,21.09,0,0,0-1-4.21l11.84-5.34A1.5,1.5,0,0,0,65.4,28.34Z"/><path class="cls-3" d="M64.29,32.89c0,19.64-29.38,58.09-31.4,56.26C17.83,75.55,1.5,50.23,1.5,32.89a31.4,31.4,0,0,1,62.79,0Z"/></g></g></svg>
